Coordinates
version=1
nRows=17
nColumns=36
inDegrees=yes

Units are S.I. units (second, meters, Newtons, ...)
If the header above contains a line with 'inDegrees', this indicates whether rotational values are in degrees (yes) or radians (no).

endheader
time	pelvis_tilt	pelvis_list	pelvis_rotation	pelvis_tx	pelvis_ty	pelvis_tz	hip_flexion_r	hip_adduction_r	hip_rotation_r	knee_angle_r	knee_angle_r_beta	ankle_angle_r	subtalar_angle_r	mtp_angle_r	hip_flexion_l	hip_adduction_l	hip_rotation_l	knee_angle_l	knee_angle_l_beta	ankle_angle_l	subtalar_angle_l	mtp_angle_l	lumbar_extension	lumbar_bending	lumbar_rotation	arm_flex_r	arm_add_r	arm_rot_r	elbow_flex_r	pro_sup_r	arm_flex_l	arm_add_l	arm_rot_l	elbow_flex_l	pro_sup_l
      2.69491530	     -6.21773914	      1.24412703	      0.08024790	      0.30466658	      1.34407374	     -0.04728485	     11.23486371	     -0.76512146	    -18.27357653	      0.78786900	      0.01375091	    -49.72212654	     -1.22245621	     -7.49999987	     12.37869384	      1.42355961	     -8.10481582	      2.54707967	      0.04445493	    -45.34652720	      1.63663116	     -7.49999987	     -5.02001013	     -1.57574947	     -9.88799813	   -137.58702609	   -134.45936705	   -137.02413857	     72.58390883	     83.22188929	    324.81398399	    -61.32771082	    304.05494873	     89.40358788	     81.80606934
      2.71186440	     -5.03969300	      0.94501163	      0.80257134	      0.29995589	      1.36637008	     -0.05363845	     11.02032352	     -0.68169567	    -16.44022135	      0.86093527	      0.01502616	    -49.77835570	     -0.00392654	     -7.49999987	     12.36372462	      1.52631097	     -5.89018694	      3.36301449	      0.05869568	    -46.05012632	      2.11276005	     -7.49999987	     -6.43874401	     -1.00044540	     -6.48442123	   -153.90075716	   -132.82730982	   -153.72709241	     72.08772753	     85.76258521	    339.99925172	    -58.01652711	    320.44913675	     85.04143094	     83.73484333
      2.72881360	     -4.21148494	      1.21207779	      1.32295033	      0.29893421	      1.39152402	     -0.05361631	     11.41364761	     -1.10381777	    -15.44794041	      0.52426764	      0.00915020	    -49.79853307	      0.82505158	     -7.49999987	     13.03754117	      2.28483205	     -5.16088663	      3.53680372	      0.06172887	    -45.07628636	      2.46165894	     -7.49999987	     -8.11044150	     -0.95351558	     -3.79622702	   -165.47657945	   -136.42994142	   -167.34935722	     67.17031892	     87.66445005	    349.38301774	    -52.26018652	    330.66588293	     77.57689208	     83.58120805
      2.74576270	     -3.54503189	      1.74643973	      1.71130946	      0.29437666	      1.40239220	     -0.05892167	     12.25667396	     -2.06002455	    -14.35462930	      0.33410622	      0.00583125	    -49.76688858	      0.51669229	     -7.49999987	     13.98664293	      2.96151903	     -5.12845339	      4.00140604	      0.06983771	    -43.51039189	      1.35651213	     -7.49999987	     -9.96724619	     -0.97314256	     -4.45471201	   -166.83241508	   -142.35771445	   -170.27512448	     58.67192041	     85.57208200	    350.54039980	    -45.40707942	    329.49025776	     71.80303056	     81.89571448
      2.76271190	     -3.19988987	      2.01413441	      1.91400423	      0.28549857	      1.41178008	     -0.06720881	     13.63427225	     -3.05883077	    -13.28405678	      0.28264678	      0.00493312	    -49.75131691	      0.41788437	     -7.49999987	     15.43198348	      3.57435257	     -5.52397528	      4.30844772	      0.07519660	    -41.38136101	      0.19775926	     -7.49999987	    -11.96469977	     -0.57058049	     -1.28072617	   -172.59819939	   -146.20896052	   -179.70607963	     57.06618985	     88.75915232	    357.41458205	    -39.73679632	    335.94832424	     62.68565358	     84.20908803
      2.77966100	     -3.18093288	      2.57617242	      2.02731814	      0.28176830	      1.42059139	     -0.07166301	     15.23852239	     -4.21895121	    -12.67496515	      0.25538817	      0.00445736	    -49.71654223	     -1.08186711	     -7.49999987	     16.54922576	      4.40209579	     -5.95521903	      3.76009793	      0.06562609	    -40.16651947	     -1.98387291	     -7.49999987	    -14.26940123	     -0.39903971	     -1.54638967	   -172.36543935	   -149.85064648	   -180.68545334	     52.58952011	     87.31641457	    357.91793812	    -34.66095348	    334.97280232	     57.26025237	     82.81396068
      2.79661020	     -3.06323394	      2.58597342	      1.84209822	      0.27752922	      1.43282687	     -0.07406578	     16.54768314	     -4.31308322	    -11.25872399	      0.24025580	      0.00419325	    -49.67813797	     -1.40161135	     -7.49999987	     17.61553026	      4.64682236	     -7.01935672	      3.10820798	      0.05424846	    -40.19029536	     -2.46221491	     -7.49999987	    -16.88448475	      0.30533475	     -1.40149696	   -173.21181458	   -152.82419231	   -181.23041666	     50.12599658	     85.98382029	    357.06851702	    -29.63820887	    335.21312749	     54.98289824	     81.76602245
      2.81355930	     -3.33810709	      2.57419283	      1.60268898	      0.26565090	      1.42746928	     -0.07837644	     18.73267137	     -4.54081652	    -10.82081154	      0.23927496	      0.00417614	    -49.63682516	     -2.05320294	     -7.49999987	     19.45349122	      4.71600711	     -8.35060090	      3.06990729	      0.05357999	    -40.40690392	     -4.63649995	     -7.49999987	    -18.58509140	      0.94333908	      1.31223874	   -176.26231672	   -154.99800705	   -188.03617359	     49.66450328	     88.60333819	    360.82081532	    -25.35868226	    339.15637190	     49.71981450	     83.86706159
      2.83050850	     -3.27970714	      2.45341654	      1.26407779	      0.26527287	      1.43202270	     -0.07706721	     19.71712420	     -4.41728607	    -10.82207635	      0.23629591	      0.00412414	    -49.59993119	     -2.05059002	     -7.49999987	     20.09997916	      4.38473201	     -8.69774418	      2.64014169	      0.04607917	    -41.59539818	     -5.67058347	     -7.49999987	    -20.22191429	      1.49079827	      1.46217470	   -175.68734228	   -156.72505810	   -186.04791592	     47.58688856	     86.50283691	    359.80034686	    -22.01627288	    340.83953742	     47.04818221	     81.93692425
      2.84745760	     -3.02158499	      2.72176850	      0.68868367	      0.26521661	      1.42472195	     -0.07685122	     20.21898379	     -4.58117944	    -11.47953349	      0.21582129	      0.00376679	    -49.54417398	     -2.80136074	     -7.49999987	     20.14729790	      4.20298439	     -9.48142440	      2.36846048	      0.04133743	    -42.04291805	     -5.39781478	     -7.49999987	    -21.24564997	      1.46981185	      2.73375021	   -175.54078088	   -157.95146973	   -184.69082070	     45.58115055	     84.21502281	    358.64482583	    -18.82066573	    340.40438914	     47.26723318	     79.81083683
      2.86440680	     -2.26032783	      2.81841851	      0.12671744	      0.27160247	      1.41255860	     -0.07663477	     19.40164711	     -4.48986657	    -12.15452974	      0.22547837	      0.00393534	    -49.51330157	     -3.96707643	     -7.49999987	     18.97849466	      3.78424521	     -9.55389882	      2.10756711	      0.03678399	    -41.59029527	     -5.62559634	     -7.49999987	    -21.56209169	      1.16422332	      2.37745842	   -174.83150396	   -159.88358447	   -180.92383194	     42.37461871	     86.57420619	    356.53304083	    -15.99352998	    338.21230804	     46.76594027	     81.00639518
      2.88135590	     -1.69717626	      2.60159633	     -0.35312097	      0.27031627	      1.40411195	     -0.07661008	     18.44141982	     -4.01084065	    -12.11004715	      0.24964579	      0.00435714	    -49.28584533	     -4.94134221	     -7.49999987	     17.91674468	      3.23160007	     -9.60735325	      1.92936262	      0.03367373	    -40.35388352	     -5.27319566	     -7.49999987	    -20.93493509	      1.06198820	      2.16907914	   -175.59953600	   -162.50728147	   -181.36419558	     40.93258925	     83.63028960	    355.32441580	    -13.91717592	    336.79284742	     44.97490742	     78.86738563
      2.89830510	     -0.94174647	      2.16070185	     -0.75009687	      0.27258434	      1.39354538	     -0.07280487	     17.21443707	     -3.27096549	    -12.35646026	      0.30555336	      0.00533291	    -48.89465342	     -5.78036454	     -7.49999987	     16.54727058	      2.44143585	     -9.89031501	      1.62866933	      0.02842564	    -39.33690664	     -4.33563231	     -7.49999987	    -20.35921632	      1.03968455	      2.48347678	   -177.20131407	   -165.06238773	   -184.28240514	     40.23876184	     87.94445973	    354.54549656	    -12.89465339	    335.07288953	     44.52346823	     82.80498908
      2.91525420	     -0.19816767	      1.85681090	     -1.05700695	      0.26803116	      1.37302945	     -0.07650738	     16.32951052	     -2.97378418	    -12.02425357	      0.76485307	      0.01334920	    -48.82439861	     -5.99227761	     -7.49999987	     15.42740430	      1.86990810	     -8.65341932	      1.86611118	      0.03256978	    -38.35807686	     -3.54299969	     -7.49999987	    -20.22842116	      1.08844522	      2.38487903	   -178.02089001	   -166.37254443	   -183.67378687	     39.73498485	     84.26200082	    353.63442430	    -12.07818403	    333.84612402	     45.06357018	     79.82156983
      2.93220340	      0.36437338	      1.83425572	     -1.19717587	      0.26731960	      1.36245797	     -0.07468278	     15.82104984	     -3.03326027	    -12.30457670	      1.92949023	      0.03367596	    -48.52347199	     -6.98266628	     -7.49999987	     14.55380785	      1.28912486	     -7.64001053	      2.74933933	      0.04798502	    -38.37278880	     -3.93932075	     -7.49999987	    -19.46970150	      0.64494166	      1.91025130	   -178.07460765	   -167.84032062	   -182.79571578	     38.14546950	     81.49025694	    352.50795393	    -11.68077293	    333.54578064	     43.86425552	     77.77587135
      2.94915250	      0.72486019	      1.64886398	     -1.58471834	      0.27692002	      1.34862120	     -0.07569636	     15.01932176	     -3.24554838	    -12.83697244	      3.51831169	      0.06140612	    -47.35932340	     -8.40949467	     -7.49999987	     13.18620760	      0.70484191	     -6.93998480	      3.11138185	      0.05430386	    -37.75978292	     -4.34606381	     -7.49999987	    -18.07894921	      0.69520387	      2.04444737	   -178.58330887	   -168.52111514	   -183.20839317	     36.55373626	     82.25800195	    350.99386879	    -11.55361894	    333.42867928	     40.97292575	     78.61419999
      2.96610170	      1.29882315	      1.26133653	     -1.94957487	      0.28016347	      1.31961046	     -0.07110877	     13.89649968	     -2.87940889	    -12.80468328	      5.65637045	      0.09872229	    -46.51812537	     -9.12775532	     -7.49999987	     11.99529775	     -0.34752966	     -7.04408323	      3.81998280	      0.06667128	    -37.55047173	     -4.72252516	     -7.49999987	    -16.96236648	      0.88046227	      2.10039874	   -179.52680570	   -169.09700776	   -184.41646796	     36.21853907	     86.03368779	    348.55392661	    -11.35262473	    331.08652021	     41.53483728	     82.13577174
